<svg width="0" height="0" class="hidden"><symbol xmlns="http://www.w3.org/2000/svg" viewBox="0 0 8 12" id="arrow-right"><path d="M.59 10.59 5.17 6 .59 1.41 2 0l6 6-6 6-1.41-1.41Z"/></symbol><symbol xmlns="http://www.w3.org/2000/svg" viewBox="0 0 24 24" id="facebook"><path d="M8.807 4.649v3.304H6.39v4.04h2.417v12.008h4.965V11.994h3.332s.312-1.937.463-4.056h-3.776V5.176c0-.413.541-.969 1.076-.969h2.706V.001h-3.679c-5.21 0-5.087 4.044-5.087 4.648Z"/></symbol><symbol xmlns="http://www.w3.org/2000/svg" viewBox="0 0 25 24" id="instagram"><path d="M17.59 0H6.585A6.504 6.504 0 0 0 .087 6.497v11.007A6.504 6.504 0 0 0 6.584 24h11.007a6.504 6.504 0 0 0 6.496-6.496V6.497A6.504 6.504 0 0 0 17.591 0Zm-5.503 18.562A6.57 6.57 0 0 1 5.525 12a6.57 6.57 0 0 1 6.562-6.562A6.57 6.57 0 0 1 18.65 12a6.57 6.57 0 0 1-6.563 6.562Zm6.72-11.577c-1.07 0-1.94-.87-1.94-1.939 0-1.07.87-1.94 1.94-1.94 1.069 0 1.939.87 1.939 1.94 0 1.07-.87 1.94-1.94 1.94Z"/><path d="M12.087 6.845A5.161 5.161 0 0 0 6.932 12a5.161 5.161 0 0 0 5.155 5.155A5.161 5.161 0 0 0 17.243 12a5.161 5.161 0 0 0-5.156-5.155ZM18.807 4.514a.533.533 0 1 0 .001 1.066.533.533 0 0 0-.001-1.066Z"/></symbol><symbol xmlns="http://www.w3.org/2000/svg" viewBox="0 0 16 16" id="carbon_arrow"><path d="M8 2 3 7l.705.705L7.5 3.915V14h1V3.915l3.795 3.79L13 7 8 2Z"/></symbol></svg>